<?xml version="1.0" encoding="utf-8"?>
<!-- Generator: Adobe Illustrator 23.0.2, SVG Export Plug-In . SVG Version: 6.00 Build 0)  -->
<svg version="1.1" id="Layer_1" xmlns="http://www.w3.org/2000/svg" xmlns:xlink="http://www.w3.org/1999/xlink" x="0px" y="0px"
	 viewBox="0 0 100 100" style="enable-background:new 0 0 100 100;" xml:space="preserve">
<style type="text/css">
	.st0{fill:none;stroke:#FFFFFF;stroke-width:2;stroke-miterlimit:10;}
	.st1{fill:#FFFFFF;}
</style>
<path class="st0" d="M79.7,16.1C77.4,17,12.3,44.4,12.3,44.4s-3.2,1.1-2.9,3.1c0.3,2,2.8,2.9,2.8,2.9L29,56.1c0,0,5.1,16.6,6.1,19.7
	c1,3.2,1.8,3.2,1.8,3.2c0.9,0.4,1.8-0.2,1.8-0.2l10.8-9.9l16.9,12.9c4.6,2,6.2-2.2,6.2-2.2l11.6-59.6C85.2,15.5,82.1,15.1,79.7,16.1
	z"/>
<path class="st1" d="M71.4,30.5c0.1-1.4-1.9-0.4-1.9-0.4L28.6,55.5c0,0,5.4,17.2,6.4,20.3c1,3.2,2.4,3.7,2.4,3.7L40.4,60
	c0,0,28.9-27,30.2-28.1C71.8,30.8,71.4,30.5,71.4,30.5z"/>
</svg>
